<svg width="65" height="81" viewBox="0 0 65 81" fill="none" xmlns="http://www.w3.org/2000/svg">
<path d="M31.8338 0C34.1193 0 35.9784 1.84624 35.9784 4.1266C35.9784 5.75816 35.0249 7.17027 33.6402 7.83816C33.7216 8.05283 33.7648 8.28183 33.7648 8.52513V11.8264C33.7648 12.1365 33.6881 12.4323 33.5587 12.6947C46.6105 13.4437 56.9647 24.2158 56.9647 37.4018C56.9647 50.5878 45.8391 62.1471 32.1117 62.1471C18.3844 62.1471 7.25879 51.0697 7.25879 37.4018C7.25879 24.4018 17.3303 13.7394 30.1281 12.7328C29.9843 12.4657 29.9029 12.1556 29.9029 11.8312V8.5299C29.9029 8.2866 29.946 8.05761 30.0275 7.84293C28.6428 7.17504 27.6893 5.76293 27.6893 4.13137C27.6893 1.85578 29.5435 0.00476984 31.8338 0.00476984V0ZM32.7154 36.4143C32.4567 36.6242 31.3643 37.502 31.5415 38.7471C31.6805 39.7394 32.5669 40.579 33.7408 40.789C34.6512 39.4436 36.4096 36.648 35.643 35.8323C35.1447 35.2979 33.6306 35.6748 32.7154 36.4143Z" fill="#9500FF"/>
<path d="M31.8338 0C34.1193 0 35.9784 1.84624 35.9784 4.1266C35.9784 5.75816 35.0249 7.17027 33.6402 7.83816C33.7216 8.05283 33.7648 8.28183 33.7648 8.52513V11.8264C33.7648 12.1365 33.6881 12.4323 33.5587 12.6947C46.6105 13.4437 56.9647 24.2158 56.9647 37.4018C56.9647 50.5878 45.8391 62.1471 32.1117 62.1471C18.3844 62.1471 7.25879 51.0697 7.25879 37.4018C7.25879 24.4018 17.3303 13.7394 30.1281 12.7328C29.9843 12.4657 29.9029 12.1556 29.9029 11.8312V8.5299C29.9029 8.2866 29.946 8.05761 30.0275 7.84293C28.6428 7.17504 27.6893 5.76293 27.6893 4.13137C27.6893 1.85578 29.5435 0.00476984 31.8338 0.00476984V0ZM32.7154 36.4143C32.4567 36.6242 31.3643 37.502 31.5415 38.7471C31.6805 39.7394 32.5669 40.579 33.7408 40.789C34.6512 39.4436 36.4096 36.648 35.643 35.8323C35.1447 35.2979 33.6306 35.6748 32.7154 36.4143Z" fill="black" fill-opacity="0.2"/>
<path d="M64.9952 66.6264C60.8171 71.0297 55.7814 74.5361 50.1946 76.9357C44.6078 79.3354 38.5899 80.5757 32.5096 80.5805C26.4245 80.5805 20.4065 79.3545 14.815 76.9644C9.22343 74.5743 4.18288 71.0726 0 66.6789L8.33702 58.8121C11.4466 62.08 15.1935 64.68 19.3476 66.4594C23.5018 68.2389 27.9769 69.1501 32.5 69.1453C37.0231 69.1453 41.4934 68.2198 45.6476 66.4356C49.7969 64.6513 53.5438 62.0466 56.6486 58.7739L65 66.6264H64.9952Z" fill="#9500FF"/>
<path d="M64.9952 66.6264C60.8171 71.0297 55.7814 74.5361 50.1946 76.9357C44.6078 79.3354 38.5899 80.5757 32.5096 80.5805C26.4245 80.5805 20.4065 79.3545 14.815 76.9644C9.22343 74.5743 4.18288 71.0726 0 66.6789L8.33702 58.8121C11.4466 62.08 15.1935 64.68 19.3476 66.4594C23.5018 68.2389 27.9769 69.1501 32.5 69.1453C37.0231 69.1453 41.4934 68.2198 45.6476 66.4356C49.7969 64.6513 53.5438 62.0466 56.6486 58.7739L65 66.6264H64.9952Z" fill="black" fill-opacity="0.2"/>
<path d="M40.281 30.2368H23.583C19.7804 30.2368 16.6978 33.3061 16.6978 37.0922C16.6978 40.8784 19.7804 43.9476 23.583 43.9476H40.281C44.0836 43.9476 47.1662 40.8784 47.1662 37.0922C47.1662 33.3061 44.0836 30.2368 40.281 30.2368Z" fill="white"/>
<path d="M24.4603 40.0069C25.8363 40.0069 26.9518 38.8962 26.9518 37.5261C26.9518 36.1561 25.8363 35.0454 24.4603 35.0454C23.0842 35.0454 21.9688 36.1561 21.9688 37.5261C21.9688 38.8962 23.0842 40.0069 24.4603 40.0069Z" fill="#9500FF"/>
<path d="M24.4603 40.0069C25.8363 40.0069 26.9518 38.8962 26.9518 37.5261C26.9518 36.1561 25.8363 35.0454 24.4603 35.0454C23.0842 35.0454 21.9688 36.1561 21.9688 37.5261C21.9688 38.8962 23.0842 40.0069 24.4603 40.0069Z" fill="black" fill-opacity="0.2"/>
<path d="M38.6707 39.5674C40.0468 39.5674 41.1622 38.4568 41.1622 37.0867C41.1622 35.7166 40.0468 34.606 38.6707 34.606C37.2947 34.606 36.1792 35.7166 36.1792 37.0867C36.1792 38.4568 37.2947 39.5674 38.6707 39.5674Z" fill="#9500FF"/>
<path d="M38.6707 39.5674C40.0468 39.5674 41.1622 38.4568 41.1622 37.0867C41.1622 35.7166 40.0468 34.606 38.6707 34.606C37.2947 34.606 36.1792 35.7166 36.1792 37.0867C36.1792 38.4568 37.2947 39.5674 38.6707 39.5674Z" fill="black" fill-opacity="0.2"/>
<path d="M32.7241 43.4609C35 43.3893 37.2712 43.3225 39.5471 43.251C39.9687 44.7633 40.3903 46.2756 40.812 47.7926C38.1192 46.3471 35.4217 44.9064 32.7289 43.4609H32.7241Z" fill="white"/>
</svg>
